HIERARCHY
ROOT Hips
{
    OFFSET 0.0 0.0 0.0
    CHANNELS 6 Xposition Yposition Zposition Zrotation Xrotation Yrotation
    JOINT LHipJoint
    {
        OFFSET 0.1 0.0 0.0
        CHANNELS 3 Zrotation Xrotation Yrotation
        JOINT LeftHip
        {
            OFFSET 0.12197799980640411 0.0 0.0
            CHANNELS 3 Zrotation Xrotation Yrotation
            JOINT LeftKnee
            {
                OFFSET 0.0 0.0 -0.5853042602539062
                CHANNELS 3 Zrotation Xrotation Yrotation
                JOINT LeftAnkle
                {
                    OFFSET 0.0 0.0 -0.5686834454536438
                    CHANNELS 3 Zrotation Xrotation Yrotation
                    End Site
                    {
                        OFFSET 0.0 -0.1 0.0
                    }
                }
            }
        }
    }
    JOINT lowerback
    {
        OFFSET 0.0 0.0 0.1
        CHANNELS 3 Zrotation Xrotation Yrotation
        JOINT Chest
        {
            OFFSET 0.0 0.0 0.24749666452407837
            CHANNELS 3 Zrotation Xrotation Yrotation
            JOINT Chest2
            {
                OFFSET 0.0 0.0 0.25728103518486023
                CHANNELS 3 Zrotation Xrotation Yrotation
                JOINT LeftCollar
                {
                    OFFSET 0.1 0.0 0.0
                    CHANNELS 3 Zrotation Xrotation Yrotation
                    JOINT LeftShoulder
                    {
                        OFFSET 0.13868111371994019 0.0 0.0
                        CHANNELS 3 Zrotation Xrotation Yrotation
                        JOINT LeftElbow
                        {
                            OFFSET 0.2598479688167572 0.0 0.0
                            CHANNELS 3 Zrotation Xrotation Yrotation
                            JOINT LeftWrist
                            {
                                OFFSET 0.303337037563324 0.0 0.0
                                CHANNELS 3 Zrotation Xrotation Yrotation
                                End Site
                                {
                                    OFFSET 0.1 0.0 0.0
                                }
                            }
                        }
                    }
                }
                JOINT Neck
                {
                    OFFSET 0.0 0.0 0.1
                    CHANNELS 3 Zrotation Xrotation Yrotation
                    JOINT Head
                    {
                        OFFSET 0.0 0.0 0.16352225840091705
                        CHANNELS 3 Zrotation Xrotation Yrotation
                        End Site
                        {
                            OFFSET 0.0 0.0 0.1505243331193924
                        }
                    }
                }
                JOINT RightCollar
                {
                    OFFSET -0.1 0.0 0.0
                    CHANNELS 3 Zrotation Xrotation Yrotation
                    JOINT RightShoulder
                    {
                        OFFSET -0.13868111371994019 0.0 0.0
                        CHANNELS 3 Zrotation Xrotation Yrotation
                        JOINT RightElbow
                        {
                            OFFSET -0.2598479688167572 0.0 0.0
                            CHANNELS 3 Zrotation Xrotation Yrotation
                            JOINT RightWrist
                            {
                                OFFSET -0.303337037563324 0.0 0.0
                                CHANNELS 3 Zrotation Xrotation Yrotation
                                End Site
                                {
                                    OFFSET -0.1 0.0 0.0
                                }
                            }
                        }
                    }
                }
            }
        }
    }
    JOINT RHipJoint
    {
        OFFSET -0.1 0.0 0.0
        CHANNELS 3 Zrotation Xrotation Yrotation
        JOINT RightHip
        {
            OFFSET -0.12197799980640411 0.0 0.0
            CHANNELS 3 Zrotation Xrotation Yrotation
            JOINT RightKnee
            {
                OFFSET 0.0 0.0 -0.5853042602539062
                CHANNELS 3 Zrotation Xrotation Yrotation
                JOINT RightAnkle
                {
                    OFFSET 0.0 0.0 -0.5686834454536438
                    CHANNELS 3 Zrotation Xrotation Yrotation
                    End Site
                    {
                        OFFSET 0.0 -0.1 0.0
                    }
                }
            }
        }
    }
}
MOTION
Frames: 4
Frame Time: 0.03333333333333333
-2.9265720513649285e-05 1.8017617464065552 -2.6648558559827507e-05 91.56664333762706 -24.526652326707445 68.45669206946428 -6.3611093629270335e-15 -6.3611093629270335e-15 6.3611093629270335e-15 -15.780150625217594 12.72044480305894 13.188945930688023 16.098475337443098 -19.15910414900745 24.004001600322727 -8.827812596100317e-32 -3.1805546814635164e-15 -3.1805546814635164e-15 -6.3611093629270335e-15 -6.3611093629270335e-15 6.3611093629270335e-15 -11.409783323831954 9.485733304534348 19.905219372779182 56.58179077510008 -1.2885146829183674e-06 1.3540864244197912e-06 0.0 -6.3611093629270335e-15 0.0 -164.71029768524025 23.09051756921554 71.53575947704532 -12.03045437385753 5.372574465799082e-07 9.283024541407091e-07 -2.648343778830095e-31 4.770832022195275e-15 6.3611093629270335e-15 0.0 -6.3611093629270335e-15 0.0 -42.91707898616032 -13.085658569423266 27.17005341096825 0.0 -6.3611093629270335e-15 0.0 -83.17035632504978 -12.154999116854874 -104.98857741204328 38.898685057051566 1.840963214439922e-06 -5.127795350372433e-07 0.0 0.0 -6.3611093629270335e-15 -6.3611093629270335e-15 -6.3611093629270335e-15 6.3611093629270335e-15 126.1922590674794 -34.53802376435181 104.92611167055362 -177.80943428301143 16.215016861311884 160.66447114817097 -1.5902773407317588e-15 7.951386703658794e-16 -3.975693351829397e-16
-1.9654082279885188e-05 1.8017551898956299 -1.638979301787913e-05 77.38304706986686 -34.77503196167165 67.25463478673089 -6.361109362927033e-15 0.0 0.0 -30.85879048658483 13.993864216453552 13.696395554813748 46.25955075502174 -27.645275403269636 27.69715241554668 -3.180554681463516e-15 9.541664044390547e-15 2.648343778830095e-31 -6.361109362927033e-15 0.0 0.0 4.9596786162584925 -2.4366799633570078 10.546639844465654 90.91864104814645 -2.9855511043788104e-06 9.098163456035628e-07 6.3611093629270335e-15 -6.3611093629270335e-15 -1.590277340731758e-15 -138.68979844110424 10.723421839479405 77.25874906833444 -38.47535866956734 5.61518489623255e-07 9.829851260362392e-07 0.0 -9.541664044390549e-15 0.0 6.3611093629270335e-15 -6.3611093629270335e-15 -1.590277340731758e-15 129.52397737046533 -5.203503325027555 -26.141131866233764 6.3611093629270335e-15 -6.3611093629270335e-15 -1.590277340731758e-15 -62.80740307258519 -2.9425029793113566 -78.75006189433239 30.41900651334777 -5.532666058977079e-07 1.0842401007990924e-07 0.0 4.969616689786745e-16 0.0 -6.361109362927033e-15 0.0 0.0 140.91069073571435 -17.419356253371323 116.62315695322125 178.62993085525156 11.727894467332177 160.8885854823836 3.776908684237926e-15 4.2587299047593326e-32 1.2921003393445538e-15
-2.918160316767171e-05 1.8017624616622925 -2.1374478819780052e-05 111.48249529917406 51.2915951381555 57.894169608736696 3.1805546814635168e-15 4.4139062980501586e-32 1.5902773407317584e-15 -6.482869603320762 2.875771624118402 -13.204051500685905 -19.821630850082517 3.701575909489085 40.13177971358244 -3.1805546814635168e-15 -6.3611093629270335e-15 -3.1805546814635168e-15 3.1805546814635168e-15 4.4139062980501586e-32 1.5902773407317584e-15 -10.15786711077456 4.593824991234141 9.768534963377247 39.65429990527675 -2.3087234466737776e-06 -2.4075351039689927e-07 3.9756933518293955e-16 0.0 0.0 179.19677357949544 7.51305165259507 80.01927256225807 -30.203752772531047 -5.1932772703066605e-06 3.2697938998410622e-06 -1.7655625192200634e-31 -3.1805546814635164e-15 -6.361109362927033e-15 3.9756933518293955e-16 0.0 0.0 104.20155305846276 8.041196611899837 -19.59291815510296 3.9756933518293955e-16 0.0 0.0 -117.03105522179261 -0.8883366406712122 -87.36191169507298 38.9251888789256 1.0789857254811447e-06 -8.67259726982089e-08 -6.3611093629270335e-15 6.3611093629270335e-15 3.531125038440127e-31 3.1805546814635168e-15 4.4139062980501586e-32 1.5902773407317584e-15 58.514049378303525 -21.5157488427627 119.9159197749696 161.45241508963204 19.080440133128132 163.48989206698215 -3.1805546814635176e-15 -4.4139062980501586e-32 1.5902773407317588e-15
-3.118041786365211e-05 1.80174720287323 -1.880757190519944e-05 96.94132717182738 24.727714706191865 67.91719218160038 -1.2722218725854067e-14 3.531125038440127e-31 -3.1805546814635168e-15 -3.1931940957393783 2.309302697327121 -8.772866721719673 -8.241725211694071 4.519493733690863 38.49976379570294 -1.7655625192200634e-31 -6.3611093629270335e-15 -3.1805546814635168e-15 -1.2722218725854067e-14 3.531125038440127e-31 -3.1805546814635168e-15 -1.2738500675493543 0.9955677953491664 11.408939119345721 46.1738455398469 2.036326953973449e-06 -1.50237350936129e-06 1.5902773407317584e-15 -4.4139062980501586e-32 -3.1805546814635168e-15 -175.22205038281126 9.85582226968736 82.86477901470117 -28.652310178013774 -3.8960155431823824e-07 2.166009497956926e-06 -6.3611093629270335e-15 -6.361109362927033e-15 -1.2722218725854067e-14 1.5902773407317584e-15 -4.4139062980501586e-32 -3.1805546814635168e-15 115.47321338762549 0.7259259656681571 -16.27251043150151 1.5902773407317584e-15 -4.4139062980501586e-32 -3.1805546814635168e-15 -135.7469567557878 -2.278406514412284 -94.62093105590199 26.719510965738102 -2.1806418254863874e-06 1.035490999329266e-06 0.0 -6.3611093629270335e-15 0.0 -1.2722218725854067e-14 3.531125038440127e-31 -3.1805546814635168e-15 99.46344769959474 -37.959485903545584 124.33638078346455 168.09190139525586 20.723180032100785 167.67792769706236 3.1805546814635176e-15 1.3241718894150476e-31 4.770832022195277e-15
